<svg width="130" height="62" viewBox="0 0 130 62" fill="none" xmlns="http://www.w3.org/2000/svg">
<path d="M0 37.0151H3.88135V56.0466H0V37.0151Z" fill="#696871"/>
<path fill-rule="evenodd" clip-rule="evenodd" d="M10.3884 43.1339C7.80716 44.2073 6.12721 46.7305 6.13244 49.526C6.11493 51.3625 6.83762 53.1286 8.13746 54.4261C9.43731 55.7235 11.2048 56.4428 13.0412 56.4219C15.8368 56.4219 18.3568 54.7372 19.4254 52.154C20.494 49.5707 19.9005 46.5981 17.9219 44.6233C15.9433 42.6484 12.9696 42.0605 10.3884 43.1339ZM12.9909 46.6025C14.6381 46.5743 16.0002 47.8791 16.0428 49.526C16.0865 50.3417 15.787 51.1385 15.2169 51.7234C14.6467 52.3083 13.8578 52.6281 13.0413 52.6052C11.3938 52.6047 10.0546 51.2763 10.0408 49.6289C10.027 47.9814 11.3436 46.6307 12.9909 46.6025Z" fill="#696871"/>
<path fill-rule="evenodd" clip-rule="evenodd" d="M35.5531 55.3997V43.0053L31.7365 43.0441V44.3379C30.807 43.2044 29.3971 42.5761 27.9327 42.643C24.2743 42.643 21.3086 45.6088 21.3086 49.2672C21.3086 52.9256 24.2743 55.8914 27.9327 55.8914C29.3982 55.9646 30.8109 55.3351 31.7365 54.1965V55.3997C31.8116 56.1993 31.5113 56.9885 30.9235 57.5358C30.3357 58.083 29.5271 58.3263 28.7349 58.1943C27.5195 58.2948 26.3659 57.6437 25.8239 56.5512L22.4859 58.4789C23.7906 60.6027 26.1716 61.8206 28.6573 61.6358C32.1246 61.6358 35.5531 59.7857 35.5531 55.3997ZM29.88 46.2601C31.0544 46.7897 31.7892 47.9799 31.7364 49.2672C31.7604 50.1001 31.431 50.9044 30.8295 51.4812C30.2281 52.058 29.4108 52.3535 28.5796 52.2946C27.2912 52.2935 26.1328 51.5097 25.6527 50.3141C25.1727 49.1185 25.4673 47.7511 26.3972 46.8594C27.327 45.9676 28.7055 45.7304 29.88 46.2601Z" fill="#696871"/>
<path fill-rule="evenodd" clip-rule="evenodd" d="M42.0473 43.1339C39.4661 44.2073 37.7862 46.7305 37.7914 49.526C37.7739 51.3625 38.4966 53.1286 39.7964 54.4261C41.0963 55.7235 42.8638 56.4428 44.7002 56.4219C47.4957 56.4219 50.0157 54.7372 51.0843 52.154C52.1529 49.5707 51.5594 46.5981 49.5808 44.6233C47.6023 42.6484 44.6285 42.0605 42.0473 43.1339ZM44.6498 46.6025C46.2971 46.5743 47.6592 47.8791 47.7018 49.526H47.6759C47.7192 50.3371 47.4232 51.1296 46.8587 51.7137C46.2943 52.2978 45.5123 52.6207 44.7002 52.6052C43.0527 52.6047 41.7136 51.2763 41.6998 49.6289C41.6859 47.9814 43.0026 46.6307 44.6498 46.6025Z" fill="#696871"/>
<path fill-rule="evenodd" clip-rule="evenodd" d="M55.7621 37.1574C54.4616 37.1574 53.4074 38.2116 53.4074 39.5121C53.4145 40.8096 54.4645 41.8597 55.7621 41.8667C57.0625 41.8667 58.1167 40.8125 58.1167 39.5121C58.1167 38.2116 57.0625 37.1574 55.7621 37.1574ZM57.6897 43.0053H53.8084V56.0466H57.6897V43.0053Z" fill="#696871"/>
<path fill-rule="evenodd" clip-rule="evenodd" d="M72.936 54.2688C74.1042 52.9742 74.7077 51.2671 74.6127 49.526C74.7041 47.787 74.099 46.0832 72.9312 44.7915C71.7633 43.4998 70.1289 42.7267 68.3896 42.643C66.924 42.5727 65.5026 43.1555 64.5082 44.2344V43.0053H60.6269V61.2994H64.5082V54.8305C65.5026 55.9094 66.924 56.4922 68.3896 56.4218C70.1313 56.3383 71.7677 55.5633 72.936 54.2688ZM67.6008 46.4996C69.2952 46.4853 70.6882 47.8321 70.7311 49.526H70.7053C70.7668 50.3829 70.4549 51.2245 69.8499 51.8345C69.2449 52.4445 68.4058 52.7632 67.5484 52.7087C65.8545 52.6658 64.5078 51.2728 64.5221 49.5784C64.5364 47.884 65.9064 46.5139 67.6008 46.4996Z" fill="#696871"/>
<path d="M86.6963 52.1394C86.6963 55.141 84.1088 56.4219 81.2625 56.4219C78.9363 56.6278 76.7185 55.3986 75.6604 53.3168L79.0501 51.389C79.3336 52.3587 80.2547 52.9997 81.2625 52.9286C82.2069 52.9286 82.6727 52.6311 82.6727 52.1136C82.6727 50.6775 76.2038 51.4408 76.2038 46.9384C76.2038 44.0921 78.6102 42.656 81.3789 42.656C83.4595 42.5928 85.4108 43.6625 86.4764 45.4506L83.0738 47.236C82.7666 46.5379 82.0769 46.0865 81.3142 46.0845C80.6414 46.0845 80.2274 46.3433 80.2274 46.822C80.2792 48.3098 86.6963 47.3136 86.6963 52.1394Z" fill="#696871"/>
<path d="M100.98 43.0053V56.0466H97.0983V54.8305C96.1824 55.9266 94.7973 56.5181 93.3722 56.4218C90.7846 56.4218 88.4946 54.5458 88.4946 51.0138V43.0053H92.376V50.4446C92.3069 51.0866 92.5303 51.7256 92.9844 52.1847C93.4384 52.6438 94.075 52.8742 94.7177 52.8122C96.1409 52.8122 97.1371 51.9842 97.1371 50.1341V43.0053H100.98Z" fill="#696871"/>
<path d="M123.414 48.0511V56.0466H119.533V48.3874C119.533 47.0937 118.899 46.2398 117.657 46.2398C116.415 46.2398 115.612 47.1583 115.612 48.6979V56.0466H111.731V48.3874C111.731 47.0937 111.11 46.2398 109.855 46.2398C108.6 46.2398 107.824 47.1583 107.824 48.6979V56.0466H103.943V43.0053H107.824V44.2085C108.648 43.1288 109.963 42.5397 111.317 42.643C112.679 42.577 113.975 43.2301 114.733 44.3638C115.613 43.1794 117.039 42.5296 118.511 42.643C121.46 42.643 123.414 44.7907 123.414 48.0511Z" fill="#696871"/>
<path d="M126.726 42.9277C128.326 42.9277 129.624 41.6302 129.624 40.0296C129.624 38.4291 128.326 37.1316 126.726 37.1316C125.125 37.1316 123.828 38.4291 123.828 40.0296C123.828 41.6302 125.125 42.9277 126.726 42.9277Z" fill="#696871"/>
<path d="M43.9238 27.1436C51.4193 27.1436 57.4956 21.0673 57.4956 13.5718C57.4956 6.07629 51.4193 0 43.9238 0C36.4283 0 30.352 6.07629 30.352 13.5718C30.352 21.0673 36.4283 27.1436 43.9238 27.1436Z" fill="#696871"/>
<path d="M74.263 27.1436C81.7585 27.1436 87.8348 21.0673 87.8348 13.5718C87.8348 6.07629 81.7585 0 74.263 0C66.7675 0 60.6912 6.07629 60.6912 13.5718C60.6912 21.0673 66.7675 27.1436 74.263 27.1436Z" fill="#696871"/>
<rect x="0.025959" width="27.1306" height="27.1306" fill="#696871"/>
</svg>
