<svg width="214" height="56" viewBox="0 0 214 56" fill="none" xmlns="http://www.w3.org/2000/svg">
<path d="M45.967 19.5578C46.591 19.5578 46.799 19.8133 46.799 20.5013V36.0689H53.8534C54.4601 36.0689 54.6854 36.3244 54.6854 37.0123V38.3883C54.6854 39.0762 54.4601 39.3318 53.8534 39.3318H44.563C43.9564 39.3318 43.7137 39.0762 43.7137 38.3883V20.5013C43.7137 19.8133 43.9564 19.5578 44.563 19.5578H45.967Z" fill="#696871"/>
<path fill-rule="evenodd" clip-rule="evenodd" d="M67.7715 19.145C63.3689 19.145 60.8383 21.8772 60.8383 26.4177V32.4718C60.8383 37.0123 63.3863 39.7445 67.7715 39.7445C72.1567 39.7445 74.7046 37.0123 74.7046 32.4718V26.4177C74.7046 21.8772 72.174 19.145 67.7715 19.145ZM67.8583 22.4865C70.3889 22.4865 71.7929 23.8625 71.7929 26.4177V32.5111C71.7929 35.0271 70.3889 36.4423 67.8583 36.4423C65.3277 36.4423 63.9411 35.086 63.9411 32.5111V26.4177C63.9411 23.8821 65.3277 22.4865 67.8583 22.4865Z" fill="#696871"/>
<path d="M95.348 28.5013C96.024 28.5013 96.18 28.7568 96.18 29.4448V33.1794C96.2172 34.9611 95.5418 36.6662 94.3427 37.8182C92.8724 39.146 91.0185 39.8047 89.1429 39.6659C84.6537 39.6659 82.2097 36.9337 82.2097 32.3932V26.2998C82.2097 21.8182 84.7403 19.0664 89.1429 19.0664C92.6094 19.0664 94.8627 20.6192 95.816 23.7249C95.9241 23.9614 95.9275 24.242 95.8252 24.4819C95.7228 24.7218 95.5267 24.8928 95.296 24.9435L93.9441 25.4742C93.3547 25.7101 93.1121 25.5725 92.9041 24.8846C92.3134 23.1574 90.7644 22.105 89.1429 22.3293C86.5949 22.3293 85.2083 23.7249 85.2083 26.2605V32.5111C85.2083 35.086 86.6123 36.4423 89.1429 36.4423C91.6735 36.4423 93.2334 35.1253 93.2334 33.1991V31.7445H89.4722C88.8482 31.7445 88.6229 31.4693 88.6229 30.7814V29.4448C88.6229 28.7568 88.8482 28.5013 89.4722 28.5013H95.348Z" fill="#696871"/>
<path fill-rule="evenodd" clip-rule="evenodd" d="M110.272 19.145C105.87 19.145 103.339 21.8772 103.339 26.4177V32.4718C103.339 37.0123 105.887 39.7445 110.272 39.7445C114.657 39.7445 117.205 37.0123 117.205 32.4718V26.4177C117.205 21.8772 114.675 19.145 110.272 19.145ZM110.359 22.4865C112.872 22.4865 114.276 23.8625 114.276 26.4177V32.5111C114.276 35.0271 112.889 36.4423 110.359 36.4423C107.828 36.4423 106.424 35.086 106.424 32.5111V26.4177C106.424 23.8821 107.845 22.4865 110.359 22.4865Z" fill="#696871"/>
<path d="M125.369 20.1278C125.369 19.6954 125.49 19.5578 125.871 19.5578H126.669C127.05 19.5578 127.137 19.6954 127.137 20.1278V38.7617C127.137 39.1942 127.137 39.3318 126.669 39.3318H125.871C125.49 39.3318 125.369 39.1942 125.369 38.7617V20.1278Z" fill="#696871"/>
<path fill-rule="evenodd" clip-rule="evenodd" d="M148.369 25.7298C148.369 22.3211 145.933 19.5578 142.927 19.5578H136.462C136.098 19.5578 135.959 19.6954 135.959 20.1278V38.7617C135.959 39.1942 136.098 39.3318 136.462 39.3318H137.276C137.64 39.3318 137.727 39.1942 137.727 38.7617V31.9018H142.927C145.933 31.9018 148.369 29.1385 148.369 25.7298ZM146.043 27.8132C145.368 29.139 144.12 29.9557 142.77 29.9557H137.571V21.3857H142.77C144.12 21.3857 145.368 22.2024 146.043 23.5282C146.718 24.854 146.718 26.4874 146.043 27.8132Z" fill="#696871"/>
<path d="M161.906 19.1647C164.654 18.8208 167.276 20.5628 168.354 23.4497C168.493 23.7642 168.354 24.0197 168.077 24.177L167.314 24.5701C167.002 24.7077 166.881 24.688 166.69 24.3146C165.884 22.1736 163.95 20.8699 161.906 21.091C158.977 21.091 157.382 22.4079 157.382 24.7666C157.347 26.2572 158.287 27.549 159.584 27.7937C160.516 28.1384 161.482 28.3498 162.461 28.4227C163.645 28.4943 164.814 28.7659 165.927 29.2286C167.687 29.86 168.816 31.8042 168.631 33.887C168.631 37.5627 166.274 39.7838 161.941 39.7838C159.012 40.1638 156.247 38.1741 155.302 35.0074C155.24 34.8656 155.238 34.6998 155.295 34.5553C155.352 34.4108 155.463 34.3027 155.597 34.2605L156.36 33.946C156.481 33.8897 156.618 33.8939 156.737 33.9574C156.855 34.0209 156.945 34.138 156.984 34.2802C157.779 36.5589 159.785 37.9904 161.941 37.8182C165.217 37.8182 166.829 36.521 166.829 33.887C166.892 32.4573 166.034 31.1853 164.801 30.8797C163.904 30.5763 162.979 30.3916 162.045 30.3293L160.173 30.0541C159.587 29.9131 159.008 29.7359 158.44 29.5234C157.878 29.331 157.354 29.0173 156.897 28.5996C155.966 27.6437 155.458 26.2681 155.51 24.8453C155.632 21.4055 157.902 19.1647 161.906 19.1647Z" fill="#696871"/>
<path d="M177.974 32.6094C178.126 35.4949 180.234 37.7462 182.783 37.7462C185.332 37.7462 187.44 35.4949 187.593 32.6094V20.1278C187.593 19.6954 187.715 19.5578 188.096 19.5578H188.893C189.275 19.5578 189.396 19.6954 189.396 20.1278V32.5897C189.396 37.0517 187.073 39.7445 182.792 39.7445C178.511 39.7445 176.188 37.0517 176.188 32.5897V20.1278C176.188 19.6954 176.31 19.5578 176.674 19.5578H177.488C177.852 19.5578 177.974 19.6954 177.974 20.1278V32.6094Z" fill="#696871"/>
<path d="M213.315 19.5577C213.697 19.5577 213.818 19.6953 213.818 20.1277V38.7616C213.818 39.194 213.697 39.3316 213.315 39.3316H212.587C212.223 39.3316 212.102 39.194 212.102 38.7616V27.4201C212.102 25.7699 212.2 24.1215 212.397 22.4864H212.293C211.751 23.9817 211.12 25.433 210.404 26.8304L206.677 34.28C206.584 34.5446 206.356 34.7166 206.105 34.7125H205.62C205.365 34.7138 205.134 34.5441 205.03 34.28L201.252 26.7518C200.581 25.3744 200.001 23.9421 199.518 22.4668H199.414C199.592 24.1169 199.685 25.7774 199.692 27.4397V38.7616C199.692 39.194 199.57 39.3316 199.189 39.3316H198.513C198.132 39.3316 198.011 39.194 198.011 38.7616V20.1277C198.011 19.6953 198.132 19.5577 198.513 19.5577H199.137C199.429 19.5268 199.707 19.7079 199.83 20.0098L205.897 32.2358L211.929 20.1277C212.119 19.7149 212.223 19.656 212.605 19.656L213.315 19.5577Z" fill="#696871"/>
<path fill-rule="evenodd" clip-rule="evenodd" d="M3.6399 1.82801V41.7494C3.6399 42.2394 3.46824 42.7094 3.16269 43.0559C2.85714 43.4024 2.44273 43.5971 2.01061 43.5971H1.62929C0.729458 43.5971 0 42.7698 0 41.7494V1.82801C0.00950113 0.815257 0.736183 -5.73102e-05 1.62929 3.02148e-09H2.01061C2.90372 -5.73102e-05 3.6304 0.815257 3.6399 1.82801ZM23.6255 27.1343C23.9695 26.7628 24.433 26.5676 24.9075 26.5946L24.8209 26.6339C25.3252 26.5755 25.8269 26.7705 26.1936 27.1675C26.5604 27.5645 26.7554 28.1237 26.7275 28.6978V39.5086C26.7275 40.6484 25.9127 41.5725 24.9075 41.5725C23.9024 41.5725 23.0876 40.6484 23.0876 39.5086V28.5602C23.087 28.0214 23.2814 27.5059 23.6255 27.1343ZM28.8243 32.8256C28.8243 31.74 29.6003 30.86 30.5576 30.86C31.0591 30.8077 31.5559 31.0054 31.9186 31.4017C32.2813 31.7979 32.4742 32.3535 32.4469 32.9238V35.3022C32.4469 36.4366 31.6359 37.3563 30.6356 37.3563C29.6352 37.3563 28.8243 36.4366 28.8243 35.3022V32.8256ZM15.1318 49.1794V34.9681C14.5898 35.4353 13.9231 35.6781 13.2425 35.656C12.6182 35.6385 12.0136 35.4053 11.5092 34.9877V49.1794C11.5092 50.3138 12.3202 51.2334 13.3205 51.2334C14.3209 51.2334 15.1318 50.3138 15.1318 49.1794ZM7.57441 40.3538C6.95072 40.3326 6.34695 40.0998 5.84112 39.6855V53.9361C5.84112 55.0759 6.65594 56 7.66107 56C8.6662 56 9.48102 55.0759 9.48102 53.9361V39.7838C8.91502 40.1986 8.24721 40.3983 7.57441 40.3538ZM19.1529 30.8011C18.5001 30.796 17.8645 30.5626 17.333 30.1328V44.4227C17.333 45.5625 18.1478 46.4866 19.1529 46.4866C20.158 46.4866 20.9729 45.5625 20.9729 44.4227V30.1524C20.423 30.6169 19.7517 30.8591 19.0662 30.8404L19.1529 30.8011ZM7.76523 38.8402H7.38391C6.48407 38.8402 5.75462 38.013 5.75462 36.9926V6.5847C5.76412 5.57195 6.4908 4.75664 7.38391 4.75669H7.76523C8.65833 4.75664 9.38502 5.57195 9.39452 6.5847V37.0319C9.39452 38.0523 8.66506 38.8796 7.76523 38.8796V38.8402ZM13.1034 34.1621H13.502C14.3923 34.1621 15.114 33.3437 15.114 32.3341V11.3021C15.114 10.2893 14.3951 9.46525 13.502 9.45448H13.1034C12.6728 9.45445 12.2602 9.64974 11.9574 9.99682C11.6546 10.3439 11.4868 10.8139 11.4914 11.3021V32.3341C11.4914 33.3437 12.2131 34.1621 13.1034 34.1621ZM19.2396 29.3464H18.8756C17.9825 29.3465 17.2558 28.5312 17.2463 27.5184V16.1965C17.2175 15.6864 17.3764 15.1856 17.6851 14.8131C17.9938 14.4407 18.4248 14.2299 18.8756 14.2309H19.2569C20.1567 14.2309 20.8862 15.0582 20.8862 16.0786V27.4791C20.8908 27.9725 20.7212 28.4475 20.4152 28.7983C20.1091 29.1491 19.692 29.3464 19.2569 29.3464H19.2396ZM24.6125 25.1203H24.9938H25.0111C25.9042 25.1095 26.6231 24.2855 26.6231 23.2726V20.3439C26.6136 19.3311 25.8869 18.5158 24.9938 18.5159H24.6125C23.7194 18.5158 22.9927 19.3311 22.9832 20.3439V23.2726C22.9832 24.2931 23.7126 25.1203 24.6125 25.1203Z" fill="#696871"/>
</svg>
