<svg width="204" height="41" viewBox="0 0 204 41" fill="none" xmlns="http://www.w3.org/2000/svg">
<path d="M65.58 33.2925C64.5489 33.3484 63.529 33.0552 62.6849 32.4604C61.9689 31.9296 61.5604 31.0801 61.5928 30.1894V14.1193C61.5757 13.9814 61.6231 13.8434 61.7214 13.7452C61.8196 13.6469 61.9576 13.5995 62.0955 13.6166H65.0079C65.3373 13.6166 65.4933 13.7899 65.4933 14.1193V28.9412C65.4933 29.6 65.788 29.9294 66.3947 29.9294C66.6519 29.94 66.9092 29.9107 67.1575 29.8427C67.5042 29.8427 67.6949 29.9467 67.7122 30.2587L67.9723 32.4257C67.9975 32.5535 67.9663 32.686 67.8865 32.789C67.8067 32.8921 67.6863 32.9555 67.5562 32.9631C66.9183 33.1738 66.2517 33.2849 65.58 33.2925Z" fill="#696871"/>
<path fill-rule="evenodd" clip-rule="evenodd" d="M71.5609 31.4377C74.5795 33.9317 78.9436 33.9317 81.9622 31.4377V31.4203C84.5731 28.6975 84.5731 24.4005 81.9622 21.6777C78.9387 19.1973 74.5844 19.1973 71.5609 21.6777C68.8838 24.3803 68.8838 28.7351 71.5609 31.4377ZM79.2581 29.1493C77.8511 30.4238 75.707 30.4238 74.3001 29.1493C73.0292 27.6881 73.0292 25.5139 74.3001 24.0527C75.707 22.7782 77.8511 22.7782 79.2581 24.0527C80.5289 25.5139 80.5289 27.6881 79.2581 29.1493Z" fill="#696871"/>
<path fill-rule="evenodd" clip-rule="evenodd" d="M100.442 20.7588C100.442 20.4294 100.286 20.2561 99.9568 20.2561L97.0791 20.2734C96.9441 20.262 96.8111 20.312 96.717 20.4095C96.6229 20.507 96.5776 20.6416 96.5937 20.7762V21.0535C95.5358 20.2444 94.2326 19.8222 92.9012 19.8574C91.0748 19.7922 89.2995 20.4673 87.9779 21.7296C85.38 24.4173 85.38 28.6805 87.9779 31.3682C89.2934 32.6419 91.0713 33.3243 92.9012 33.2578C94.1952 33.2945 95.4643 32.8979 96.507 32.131V33.2231C96.5424 34.0263 96.2481 34.8091 95.6923 35.39C95.084 35.9452 94.2782 36.2325 93.456 36.1875C92.7814 36.2011 92.114 36.0461 91.5144 35.7368C91.0223 35.4707 90.6458 35.0324 90.4569 34.5059C90.3614 34.2719 90.1374 34.1158 89.8848 34.1072H86.9725C86.5044 34.1072 86.5044 34.2632 86.5044 34.6099C86.7483 36.0304 87.5707 37.286 88.7754 38.0771C90.1711 38.9818 91.8111 39.4357 93.4733 39.3772C95.3136 39.4583 97.1163 38.8389 98.518 37.6437C99.7968 36.5236 100.504 34.8873 100.442 33.1884V20.7588ZM95.6058 29.1492C95.0049 29.8254 94.1349 30.2 93.2308 30.172C92.3169 30.1984 91.437 29.8249 90.8211 29.1492C90.1994 28.4353 89.8711 27.5124 89.9024 26.5662C89.8642 25.6107 90.2 24.6779 90.8385 23.9659C91.4529 23.2882 92.3338 22.9144 93.2481 22.9431C94.1439 22.9135 95.007 23.2816 95.6058 23.9486C96.7912 25.4795 96.7912 27.6183 95.6058 29.1492Z" fill="#696871"/>
<path fill-rule="evenodd" clip-rule="evenodd" d="M105.002 31.4377C108.025 33.918 112.379 33.918 115.403 31.4377V31.4203C118.014 28.6975 118.014 24.4005 115.403 21.6777C112.377 19.2041 108.027 19.2041 105.002 21.6777C102.388 24.4063 102.388 28.709 105.002 31.4377ZM110.22 30.1028C109.294 30.1313 108.395 29.7879 107.723 29.1493C106.474 27.6799 106.474 25.5221 107.723 24.0527C108.395 23.4141 109.294 23.0707 110.22 23.0992C111.14 23.0754 112.032 23.4184 112.699 24.0527C113.947 25.5221 113.947 27.6799 112.699 29.1493C112.032 29.7836 111.14 30.1266 110.22 30.1028Z" fill="#696871"/>
<path fill-rule="evenodd" clip-rule="evenodd" d="M120.309 17.3091C121.257 18.1387 122.672 18.1387 123.62 17.3091C124.04 16.9128 124.278 16.3609 124.278 15.7835C124.278 15.2062 124.04 14.6543 123.62 14.258C122.664 13.4505 121.265 13.4505 120.309 14.258C119.889 14.6543 119.651 15.2062 119.651 15.7835C119.651 16.3609 119.889 16.9128 120.309 17.3091ZM121.089 32.4604C121.935 33.0504 122.953 33.3431 123.984 33.2925C124.661 33.2862 125.334 33.1751 125.978 32.9632C126.108 32.9556 126.228 32.8921 126.308 32.7891C126.388 32.6861 126.419 32.5536 126.394 32.4257L126.134 30.2588C126.116 29.9468 125.926 29.8427 125.579 29.8427C125.324 29.9097 125.062 29.9389 124.799 29.9294C124.209 29.9294 123.915 29.6 123.915 28.9413V20.7589C123.915 20.4295 123.759 20.2562 123.429 20.2562H120.517C120.379 20.2391 120.241 20.2865 120.143 20.3848C120.044 20.483 119.997 20.621 120.014 20.7589V30.1895C119.984 31.0758 120.384 31.9221 121.089 32.4604Z" fill="#696871"/>
<path fill-rule="evenodd" clip-rule="evenodd" d="M142.065 21.7123C140.733 20.443 138.945 19.7675 137.107 19.8401C135.502 19.8051 133.953 20.4321 132.825 21.5737C132.23 20.4106 130.988 19.7249 129.687 19.8401C129.049 19.8284 128.414 19.9342 127.815 20.1521C127.564 20.225 127.398 20.4634 127.416 20.7242V22.7698C127.416 23.0472 127.607 23.1859 127.988 23.1859H128.56C128.842 23.1445 129.127 23.2388 129.329 23.4403C129.53 23.6418 129.624 23.9267 129.583 24.2087V38.4238C129.558 38.5587 129.601 38.6974 129.698 38.7944C129.795 38.8915 129.934 38.9344 130.068 38.9092H132.981C133.31 38.9092 133.484 38.7532 133.484 38.4238V32.1657C134.536 32.9257 135.808 33.3214 137.107 33.2925C138.948 33.3666 140.74 32.6838 142.065 31.4029C144.608 28.6734 144.608 24.4419 142.065 21.7123ZM136.795 30.1712C135.891 30.1712 135.027 29.802 134.402 29.1493C133.776 28.4106 133.449 27.4647 133.484 26.4969C133.443 25.5284 133.772 24.5806 134.402 23.8446C135.027 23.1918 135.891 22.8226 136.795 22.8226C137.698 22.8226 138.562 23.1918 139.187 23.8446C139.843 24.5678 140.186 25.5215 140.141 26.4969C140.18 27.4715 139.838 28.4231 139.187 29.1493C138.562 29.802 137.698 30.1712 136.795 30.1712Z" fill="#696871"/>
<path d="M152.155 33.2925C150.598 33.3564 149.055 32.9842 147.699 32.2177C146.597 31.5539 145.857 30.4247 145.688 29.1493C145.688 28.8026 145.81 28.6292 146.191 28.6292H148.739C148.987 28.6388 149.208 28.7861 149.312 29.0106C149.676 29.9467 150.629 30.4148 152.155 30.4148C152.687 30.4391 153.217 30.3319 153.697 30.1027C154.036 29.95 154.262 29.6235 154.287 29.2533C154.287 28.8026 154.009 28.4905 153.455 28.2825C152.797 28.0635 152.117 27.9181 151.426 27.8491C150.609 27.7566 149.798 27.6118 149 27.4157C148.223 27.2399 147.516 26.8353 146.971 26.2542C146.323 25.4559 146.035 24.4241 146.176 23.4052C146.317 22.3863 146.875 21.4719 147.717 20.8802C148.966 20.0842 150.432 19.6965 151.912 19.7707C153.344 19.7223 154.762 20.0766 156.003 20.7935C157.016 21.3673 157.717 22.3671 157.91 23.5152C157.91 23.8619 157.754 24.0353 157.442 24.0353H154.876C154.655 24.0484 154.449 23.9245 154.356 23.7232C154.185 23.3126 153.862 22.9837 153.455 22.8044C152.995 22.5641 152.482 22.4447 151.964 22.4577C151.456 22.4301 150.949 22.5315 150.49 22.7524C150.16 22.8799 149.94 23.1957 149.936 23.5499C149.958 24.0365 150.296 24.4514 150.768 24.5727C151.433 24.8236 152.126 24.998 152.831 25.0927C153.641 25.1994 154.446 25.3499 155.24 25.5435C156.017 25.7193 156.724 26.1239 157.269 26.705C157.857 27.3515 158.163 28.2066 158.118 29.0799C158.148 30.2989 157.536 31.4443 156.506 32.0963C155.211 32.9278 153.693 33.345 152.155 33.2925Z" fill="#696871"/>
<path d="M176.442 32.4257C176.462 32.55 176.431 32.6771 176.356 32.7782C176.28 32.8794 176.168 32.946 176.043 32.9631C175.41 33.1697 174.75 33.2807 174.084 33.2925C172.744 33.4312 171.429 32.8592 170.617 31.7843C169.393 32.8371 167.809 33.3772 166.197 33.2925C164.682 33.3622 163.209 32.7893 162.14 31.7149C161.079 30.59 160.522 29.0815 160.597 27.537V20.7588C160.597 20.4295 160.753 20.2561 161.083 20.2561H163.995C164.324 20.2561 164.48 20.4295 164.48 20.7588V27.017C164.449 27.7967 164.715 28.5591 165.226 29.1493C165.741 29.6962 166.468 29.9933 167.219 29.964C167.987 29.9976 168.736 29.723 169.3 29.2013C169.834 28.651 170.116 27.9042 170.08 27.1383V20.7588C170.08 20.4295 170.236 20.2561 170.565 20.2561H173.512C173.842 20.2561 173.998 20.4295 173.998 20.7588V28.9239C173.998 29.6 174.292 29.9294 174.864 29.9294C175.133 29.9398 175.402 29.9105 175.662 29.8427C175.795 29.8054 175.937 29.831 176.049 29.9121C176.16 29.9932 176.228 30.1209 176.234 30.2587L176.442 32.4257Z" fill="#696871"/>
<path d="M203.987 32.4257C204.018 32.5514 203.992 32.6845 203.915 32.7885C203.838 32.8925 203.718 32.9565 203.589 32.9631C202.944 33.1726 202.272 33.2837 201.595 33.2925C200.564 33.3456 199.545 33.0528 198.7 32.4603C197.958 31.945 197.522 31.0929 197.538 30.1894V26.1155C197.575 25.3382 197.315 24.576 196.81 23.9833C196.318 23.4346 195.605 23.1356 194.869 23.1685C194.204 23.1434 193.565 23.4246 193.135 23.9312C192.678 24.5121 192.444 25.2381 192.476 25.9768V32.3737C192.476 32.703 192.32 32.8764 191.991 32.8764H189.061C188.923 32.8935 188.785 32.846 188.687 32.7478C188.589 32.6496 188.541 32.5115 188.559 32.3737V26.1155C188.596 25.3467 188.356 24.5898 187.882 23.9833C187.455 23.4674 186.819 23.1688 186.149 23.1685C185.434 23.1396 184.74 23.4171 184.242 23.9312C183.746 24.4936 183.491 25.2282 183.531 25.9768V32.3737C183.548 32.5115 183.501 32.6496 183.403 32.7478C183.304 32.846 183.166 32.8935 183.029 32.8764H180.203C179.873 32.8764 179.717 32.703 179.717 32.3737V24.2086C179.759 23.9267 179.664 23.6418 179.463 23.4403C179.261 23.2388 178.977 23.1444 178.695 23.1858H178.123C177.741 23.1858 177.55 23.0471 177.55 22.7698V20.7242C177.532 20.4633 177.698 20.225 177.949 20.1521C178.549 19.9341 179.184 19.8283 179.821 19.84C181.071 19.7336 182.271 20.3538 182.907 21.4349C184.089 20.3144 185.685 19.7365 187.31 19.84C188.895 19.7627 190.421 20.4453 191.419 21.6776C192.581 20.415 194.248 19.7404 195.961 19.84C197.491 19.7685 198.981 20.3405 200.069 21.4176C201.134 22.5403 201.692 24.0504 201.612 25.5955V28.9412C201.612 29.6 201.907 29.9294 202.462 29.9294C202.73 29.9419 202.999 29.9126 203.259 29.8427C203.617 29.8427 203.808 29.9814 203.831 30.2587L203.987 32.4257Z" fill="#696871"/>
<path fill-rule="evenodd" clip-rule="evenodd" d="M0.711096 18.0025C3.34278 7.42493 12.8414 0 23.7414 0C34.6415 0 44.14 7.42493 46.7717 18.0025H44.6915C41.1822 17.9508 37.7449 18.9996 34.8622 21.0016C34.6958 21.122 34.5221 21.232 34.3421 21.3309H34.0994C33.9194 21.232 33.7457 21.122 33.5793 21.0016C27.6307 17.0014 19.8522 17.0014 13.9035 21.0016C13.7371 21.122 13.5634 21.232 13.3834 21.3309H13.1407C12.9607 21.232 12.787 21.122 12.6206 21.0016C9.73796 18.9996 6.30064 17.9508 2.79137 18.0025H0.711096ZM40.9466 28.8719C42.0145 28.0402 43.3381 27.6052 44.6911 27.6411H47.4821V22.0763H44.6911C42.3079 22.0475 39.9791 22.7893 38.0516 24.1913C35.8251 25.8327 32.7891 25.8327 30.5626 24.1913C26.5148 21.3735 21.1407 21.3735 17.0929 24.1913C14.8664 25.8327 11.8304 25.8327 9.60391 24.1913C7.65262 22.7714 5.29046 22.0286 2.87771 22.0763H0V27.6411H2.79103C4.14408 27.6052 5.46762 28.0402 6.53551 28.8719C10.5763 31.6917 15.9471 31.6917 19.9879 28.8719C21.0572 28.0428 22.3798 27.608 23.7324 27.6411C25.0859 27.6023 26.4104 28.0376 27.4769 28.8719C31.5247 31.6897 36.8988 31.6897 40.9466 28.8719ZM44.6911 37.5917C43.3381 37.5558 42.0145 37.9908 40.9466 38.8225C36.8988 41.6403 31.5247 41.6403 27.4769 38.8225C26.4104 37.9883 25.0859 37.5529 23.7324 37.5917C22.3798 37.5587 21.0572 37.9934 19.9879 38.8225C15.9471 41.6423 10.5763 41.6423 6.53551 38.8225C5.46762 37.9908 4.14408 37.5558 2.79103 37.5917H0V32.027H2.87771C5.29046 31.9793 7.65262 32.722 9.60391 34.1419C11.8304 35.7834 14.8664 35.7834 17.0929 34.1419C21.1407 31.3241 26.5148 31.3241 30.5626 34.1419C32.7891 35.7834 35.8251 35.7834 38.0516 34.1419C39.9791 32.7399 42.3079 31.9981 44.6911 32.027H47.4821V37.5917H44.6911Z" fill="#696871"/>
</svg>
