<svg width="181" height="42" viewBox="0 0 181 42" fill="none" xmlns="http://www.w3.org/2000/svg">
<path fill-rule="evenodd" clip-rule="evenodd" d="M108.01 10.5957C107.146 10.9783 106.599 11.8438 106.624 12.7878V12.8183C106.618 13.4383 106.871 14.0327 107.323 14.4579C107.774 14.8832 108.382 15.1008 109.001 15.0583C109.945 15.0395 110.784 14.4531 111.127 13.5731C111.47 12.6932 111.248 11.6935 110.565 11.0413C109.882 10.3891 108.873 10.2131 108.01 10.5957ZM56.9916 11.6448H52.42V30.1293H56.9916V11.6448ZM65.9366 15.8507C61.6088 15.8507 58.8049 18.5784 58.8049 23.15C58.8049 27.7978 61.5478 30.4646 65.9366 30.4646C70.3253 30.4646 73.0682 27.7216 73.0682 23.15C73.0682 18.5784 70.2643 15.8507 65.9366 15.8507ZM68.4814 23.1501C68.4814 20.6357 67.4909 19.1576 65.9366 19.1576C64.3822 19.1576 63.407 20.6814 63.407 23.1501C63.407 25.6187 64.367 27.1121 65.9366 27.1121C67.5062 27.1121 68.4814 25.7102 68.4814 23.1653V23.1501ZM79.1794 31.0284H74.7906V31.0437C75.0497 33.5733 77.5641 35.3867 81.6023 35.3867C85.9453 35.3867 88.8864 33.3142 88.8864 29.977V16.1098H84.3148V18.6547C83.6101 16.9704 81.9333 15.9012 80.1089 15.9727C76.604 15.9727 74.5011 18.7309 74.5011 23.1044C74.5011 27.4778 76.7107 30.0227 80.048 30.0227C81.8153 30.1187 83.4629 29.1289 84.2081 27.5236H84.2995V30.0836C84.2995 31.4551 83.3852 32.3999 81.648 32.3999C80.6124 32.5392 79.6083 31.9814 79.1794 31.0284ZM84.3148 23.1348C84.3148 20.91 83.2938 19.508 81.6785 19.508C80.0632 19.508 79.0727 20.8947 79.0727 23.1348C79.0727 25.3749 80.048 26.6397 81.6785 26.6397C83.309 26.6397 84.3148 25.4054 84.3148 23.1501V23.1348ZM97.7397 15.8355C93.412 15.8355 90.6081 18.5632 90.6081 23.1348V23.15C90.6081 27.7978 93.3358 30.4493 97.7397 30.4493C102.144 30.4493 104.887 27.7063 104.887 23.1348C104.887 18.5632 102.068 15.8355 97.7397 15.8355ZM100.284 23.1348C100.284 20.6205 99.2938 19.1423 97.7395 19.1423C96.1851 19.1423 95.2861 20.6814 95.2861 23.1653C95.2861 25.6492 96.2461 27.1273 97.8004 27.1273C99.3548 27.1273 100.284 25.7102 100.284 23.1653V23.1348ZM106.624 16.1402H111.195V30.1293H106.624V16.1402ZM122.289 30.3122C125.764 30.3122 127.791 27.7064 127.791 23.1348L127.852 23.1653C127.852 18.5937 125.764 15.9727 122.259 15.9117C120.42 15.8296 118.726 16.9079 118.023 18.609H117.931V16.1098H113.36V34.6095H117.931V27.7217H118.023C118.761 29.3948 120.465 30.4294 122.289 30.3122ZM123.218 23.1348C123.218 20.91 122.197 19.4928 120.597 19.4928C118.997 19.4928 117.976 20.9252 117.961 23.1348C117.946 25.3444 118.997 26.7616 120.597 26.7616C122.197 26.7616 123.218 25.3749 123.218 23.1653V23.1348ZM141.84 20.4986C141.733 17.6185 139.432 15.8203 135.638 15.8203V15.8508C131.859 15.8508 129.405 17.6337 129.375 20.3766C129.375 22.5101 130.807 23.9577 133.535 24.5216L136.171 25.0854C137.268 25.314 137.695 25.4663 137.695 26.1978C137.695 26.9293 137.085 27.3712 135.744 27.3712C134.403 27.3712 133.581 26.7616 133.443 25.7254H129.039C129.238 28.575 131.782 30.4341 135.668 30.4341C139.554 30.4341 142.19 28.575 142.19 25.6797C142.19 23.5615 141.002 22.4339 138.213 21.8396L135.287 21.2452C134.266 21.0319 133.763 20.8033 133.763 20.0871C133.763 19.3709 134.327 18.8833 135.592 18.8833C136.857 18.8833 137.68 19.508 137.68 20.4986H141.84ZM157.445 30.0989H153.041V27.4931H152.949C152.45 29.2957 150.763 30.5072 148.896 30.4037C147.49 30.4836 146.119 29.9504 145.137 28.942C144.155 27.9336 143.659 26.5491 143.776 25.1463V16.1098H148.347V24.0949C148.347 25.7559 149.201 26.6397 150.618 26.6397C151.29 26.6411 151.93 26.3522 152.374 25.8471C152.818 25.342 153.022 24.67 152.934 24.0034V16.1098H157.506L157.445 30.0989ZM164.073 16.1098H159.654L159.578 30.1294H164.149V21.8853C164.08 21.3055 164.261 20.7236 164.649 20.2867C165.036 19.8498 165.592 19.5996 166.176 19.5995C167.426 19.5995 168.111 20.3614 168.111 21.7634V30.1294H172.454V21.8548C172.379 21.2821 172.556 20.705 172.939 20.2726C173.322 19.8401 173.873 19.5946 174.451 19.5995C175.731 19.5995 176.416 20.3004 176.416 21.8243V30.1294H180.988V20.6052C181.08 19.3505 180.634 18.116 179.762 17.2092C178.89 16.3023 177.674 15.8085 176.416 15.8508C174.456 15.7665 172.688 17.0207 172.119 18.8985H172.028C171.724 17.0254 170.033 15.6993 168.142 15.8508C166.298 15.8167 164.663 17.0316 164.165 18.8071H164.073V16.1098Z" fill="#696871"/>
<path fill-rule="evenodd" clip-rule="evenodd" d="M36.587 7.57615C37.8328 9.05725 38.8592 10.7098 39.6347 12.483C40.7643 15.0684 41.3455 17.86 41.3415 20.6814C41.3331 32.0698 32.112 41.3045 20.7236 41.3297C18.0738 41.3282 15.4496 40.8107 12.9976 39.8059C11.2488 39.111 9.60703 38.1721 8.12125 37.0172C1.80177 32.2011 -1.18799 24.1823 0.435981 16.4046C2.05995 8.62681 8.00863 2.47432 15.7273 0.589362C23.4459 -1.2956 31.5609 1.42243 36.587 7.57615ZM27.5965 5.73229C25.4391 4.72827 23.0882 4.20817 20.7087 4.20843L20.7239 4.17795C15.0811 4.17374 9.82953 7.06076 6.80945 11.8274C3.78938 16.5939 3.42188 22.5755 5.83575 27.6759C6.52407 26.9528 6.94824 26.0185 7.0396 25.0244C7.59385 21.1956 10.6015 18.1879 14.4303 17.6337C16.5906 17.4378 18.3158 15.7508 18.56 13.5954C19.1143 9.76659 22.1219 6.75893 25.9507 6.20469C26.5173 6.11837 27.0704 5.9596 27.5965 5.73229ZM8.10594 31.3483C8.16689 31.2925 8.22784 31.2383 8.28879 31.1841C8.4107 31.0757 8.53262 30.9674 8.65453 30.8455C10.0102 29.5311 10.8805 27.796 11.1232 25.9234C11.2216 24.8708 11.6916 23.8876 12.4489 23.15C13.1777 22.3913 14.1587 21.9252 15.2071 21.8394C19.036 21.2852 22.0436 18.2775 22.5979 14.4487C22.6638 13.3477 23.1363 12.3105 23.9236 11.5381C24.6704 10.7942 25.6607 10.3451 26.7123 10.2733C28.425 10.0377 30.0223 9.27627 31.2839 8.09419C32.7204 9.28596 33.9374 10.7196 34.8802 12.3305C34.8223 12.4088 34.7559 12.4803 34.6821 12.5439C33.9547 13.3091 32.975 13.7855 31.9239 13.8849C28.0903 14.4296 25.0779 17.442 24.5332 21.2756C24.3118 23.4385 22.5977 25.1462 20.434 25.3596C16.5945 25.9095 13.5711 28.9143 12.9975 32.7503C12.9155 33.4951 12.6598 34.2101 12.2508 34.838C10.6874 33.9097 9.28706 32.7308 8.10594 31.3483ZM16.1367 36.5905C17.6231 37.0168 19.162 37.2322 20.7083 37.2305V37.1543C25.8119 37.1345 30.6185 34.7524 33.7253 30.7035C36.8322 26.6545 37.8888 21.395 36.587 16.4603C35.4301 17.2783 34.0909 17.8014 32.6859 17.9841C30.5281 18.2043 28.8221 19.9103 28.6019 22.0681C28.046 25.9017 25.0307 28.9108 21.1959 29.4588C19.0382 29.679 17.3321 31.385 17.112 33.5428C16.9757 34.6097 16.6452 35.6427 16.1367 36.5905Z" fill="#696871"/>
</svg>
