<svg width="182" height="43" viewBox="0 0 182 43" fill="none" xmlns="http://www.w3.org/2000/svg">
<path fill-rule="evenodd" clip-rule="evenodd" d="M107.495 11.8468C106.623 12.2414 106.079 13.1266 106.119 14.0829L106.148 14.0972C106.155 14.7013 106.405 15.2773 106.84 15.6964C107.275 16.1155 107.86 16.3427 108.464 16.3274C109.421 16.3265 110.282 15.7438 110.638 14.8554C110.994 13.9669 110.775 12.9512 110.083 12.2892C109.392 11.6273 108.367 11.4522 107.495 11.8468ZM56.0409 12.9106H51.4519V31.4955H56.0409V12.9106ZM65.019 17.1422C60.7302 17.1422 57.871 19.9014 57.871 24.5047C57.871 29.2081 60.6301 31.8958 65.019 31.8958C69.4079 31.8958 72.1671 29.108 72.1671 24.5047C72.1671 19.9014 69.3078 17.1422 65.019 17.1422ZM67.6206 24.5048C67.6206 21.9744 66.6342 20.4876 65.0616 20.4876C63.489 20.4876 62.5169 21.9172 62.5169 24.5048C62.5169 27.0924 63.489 28.5077 65.0616 28.5077C66.6342 28.5077 67.6492 27.0924 67.6492 24.5191L67.6206 24.5048ZM78.4287 32.4533H73.9969L74.0255 32.4676C74.2828 35.0266 76.8275 36.8422 80.8018 36.8565C85.1765 36.8565 88.15 34.755 88.15 31.3954V17.471H83.6039V19.7766C82.8277 18.2227 81.1977 17.2628 79.4437 17.3566C75.8554 17.3566 73.7253 20.1015 73.7253 24.5047C73.7253 28.9079 75.9555 31.4669 79.3151 31.4669C81.1133 31.5987 82.8079 30.6173 83.5896 28.995V31.5384C83.5896 32.9394 82.6746 33.8829 80.9162 33.8829C79.8602 34.0183 78.8433 33.4339 78.4287 32.4533ZM83.6037 24.5048C83.6037 22.2603 82.5743 20.845 80.9446 20.845C79.3148 20.845 78.3141 22.2746 78.3141 24.5048C78.3141 26.7349 79.3005 28.0502 80.9446 28.0502C82.5886 28.0502 83.6037 26.835 83.6037 24.5048ZM97.1133 17.1422C92.8244 17.1422 89.9652 19.9014 89.9652 24.5047H89.9938C89.9938 29.2081 92.7387 31.8958 97.1133 31.8958C101.488 31.8958 104.261 29.108 104.261 24.5047C104.261 19.9014 101.402 17.1422 97.1133 17.1422ZM99.7154 24.5048C99.7154 21.9744 98.7147 20.4876 97.1564 20.4876C95.5981 20.4876 94.6117 21.9172 94.6117 24.5048C94.6117 27.0924 95.5838 28.5077 97.1564 28.5077C98.729 28.5077 99.744 27.0924 99.744 24.5191L99.7154 24.5048ZM106.12 17.4568H110.766V31.5527H106.191L106.12 17.4568ZM121.917 31.7529C125.419 31.7529 127.478 29.0938 127.478 24.5048L127.564 24.5191C127.564 19.9157 125.491 17.271 121.888 17.2995C120.029 17.2111 118.314 18.2973 117.599 20.0158H117.514V17.4997H112.953V36.0846H117.542V29.1367H117.628C118.368 30.8216 120.08 31.8662 121.917 31.7529ZM122.803 24.5048C122.803 22.2746 121.76 20.8307 120.144 20.8307C118.529 20.8307 117.514 22.2603 117.499 24.5048C117.485 26.7493 118.529 28.1646 120.144 28.1646C121.76 28.1646 122.889 26.835 122.889 24.5191L122.803 24.5048ZM141.574 21.8599C141.545 18.9435 139.158 17.1279 135.312 17.1279L135.398 17.1422C131.524 17.1422 129.122 18.9292 129.036 21.7313C129.036 23.89 130.48 25.3339 133.239 25.92L135.899 26.4776C136.999 26.7063 137.428 26.835 137.428 27.5927C137.428 28.3504 136.799 28.7792 135.455 28.7792C134.111 28.7792 133.282 28.1645 133.154 27.1209H128.708C128.893 29.9944 131.452 31.8815 135.384 31.8815C139.315 31.8815 141.96 29.9372 141.96 27.078C141.96 24.9479 140.816 23.8042 137.957 23.2038L135.012 22.6033C133.954 22.3889 133.425 22.1602 133.425 21.4311C133.425 20.702 134.026 20.2159 135.284 20.2159C136.542 20.2159 137.385 20.8449 137.385 21.8599H141.574ZM157.329 31.5383H152.883V28.8935H152.797C152.284 30.7107 150.579 31.9287 148.694 31.8242C147.296 31.8697 145.946 31.3164 144.982 30.3034C144.018 29.2903 143.533 27.914 143.647 26.5204V17.471H148.236V25.534C148.236 27.1923 149.109 28.093 150.538 28.093C151.217 28.0879 151.86 27.789 152.301 27.2735C152.743 26.7581 152.939 26.0766 152.84 25.4053V17.471H157.415L157.329 31.5383ZM164.004 17.4567H159.544L159.573 31.5527H164.162V23.2324C164.087 22.6472 164.269 22.0584 164.661 21.6174C165.053 21.1763 165.616 20.926 166.206 20.9307C167.464 20.9307 168.164 21.6884 168.164 23.118V31.5527H172.539V23.2038C172.46 22.6252 172.637 22.0408 173.025 21.6039C173.412 21.167 173.971 20.9211 174.555 20.9307C175.856 20.9307 176.528 21.7313 176.528 23.1609V31.5527H181.145V21.9886C181.24 20.7219 180.79 19.475 179.908 18.5606C179.027 17.6462 177.797 17.1511 176.528 17.1994C174.586 17.1085 172.826 18.3346 172.239 20.1873H172.039C171.699 18.33 170.003 17.0359 168.122 17.1994C166.262 17.1615 164.611 18.3835 164.104 20.173H164.004V17.4567Z" fill="#696871"/>
<path fill-rule="evenodd" clip-rule="evenodd" d="M42.3736 14.1258C42.3739 8.30211 38.7999 3.07528 33.3729 0.962685C27.9459 -1.14991 21.7787 0.28487 17.8415 4.57599H0V42.2319H37.6702V24.6334C40.6605 21.9588 42.3709 18.1377 42.3736 14.1258ZM35.125 14.1257C35.1308 16.914 33.4556 19.431 30.8812 20.5021C28.3068 21.5731 25.3406 20.9871 23.3669 19.0175C21.3932 17.0479 20.8011 14.083 21.8668 11.5064C22.9325 8.92973 25.446 7.24931 28.2343 7.2493C32.0344 7.24929 35.1172 10.3257 35.125 14.1257ZM7.24741 34.9838H30.4214V28.0788C29.6983 28.1986 28.9669 28.2607 28.2341 28.2646C20.4287 28.2567 14.1031 21.9312 14.0952 14.1258C14.1015 13.3539 14.1733 12.5839 14.3097 11.8241H7.24741V34.9838Z" fill="#696871"/>
</svg>
