<svg width="200" height="40" viewBox="0 0 200 40" fill="none" xmlns="http://www.w3.org/2000/svg">
<path d="M29.9254 17.6027C28.7971 18.738 28.2332 20.3169 28.3872 21.9101L28.3607 21.8836C28.519 23.7585 27.8427 25.6077 26.5123 26.9381C25.1818 28.2686 23.3326 28.9448 21.4577 28.7866L21.4842 28.813C19.2142 28.6018 17.0555 29.8365 16.0867 31.9002C15.118 33.964 15.5473 36.4136 17.1601 38.0249C18.7729 39.6363 21.2228 40.0633 23.2857 39.0927C25.3486 38.1221 26.5814 35.9623 26.368 33.6925L26.396 33.7189C26.2377 31.8441 26.914 29.9948 28.2444 28.6644C29.5748 27.334 31.4241 26.6577 33.2989 26.816L33.271 26.7895C35.7658 27.0139 38.0872 25.4927 38.8774 23.1157C39.6676 20.7388 38.719 18.1305 36.5864 16.8165C34.4538 15.5026 31.6976 15.8281 29.9298 17.6027H29.9254Z" fill="#5454D4"/>
<path d="M19.0769 25.3453L19.0489 25.3189C20.6431 25.4795 22.2252 24.9158 23.3586 23.7832C24.492 22.6507 25.0569 21.0691 24.8975 19.4748L24.9254 19.5012C24.7671 17.6264 25.4434 15.7771 26.7738 14.4467C28.1043 13.1163 29.9535 12.44 31.8283 12.5983L31.8004 12.5718C34.0706 12.785 36.2307 11.5516 37.2009 9.48815C38.1711 7.42469 37.7431 4.9744 36.1307 3.36207C34.5184 1.74975 32.0681 1.32171 30.0047 2.29193C27.9412 3.26215 26.7078 5.42222 26.921 7.69241L26.8945 7.66446C27.0533 9.53943 26.3772 11.389 25.0467 12.7195C23.7161 14.0501 21.8665 14.7262 19.9916 14.5674L20.018 14.5953C18.4239 14.4347 16.8418 14.9984 15.7084 16.131C14.575 17.2635 14.0101 18.8452 14.1695 20.4395L14.143 20.413C14.3008 22.2877 13.6243 24.1366 12.294 25.4669C10.9637 26.7972 9.1148 27.4737 7.2401 27.3159L7.26657 27.3424C4.99639 27.1292 2.83632 28.3626 1.8661 30.4261C0.895883 32.4895 1.32391 34.9398 2.93624 36.5522C4.54857 38.1645 6.99886 38.5925 9.06232 37.6223C11.1258 36.6521 12.3592 34.492 12.146 32.2218L12.1739 32.2483C12.0157 30.3735 12.6919 28.5242 14.0224 27.1938C15.3528 25.8634 17.202 25.1871 19.0769 25.3453Z" fill="#FF7143"/>
<path d="M9.22099 22.3939C10.3495 21.2589 10.9129 19.6796 10.7578 18.0866L10.7857 18.113C10.6273 16.2376 11.304 14.3878 12.6351 13.0573C13.9662 11.7268 15.8163 11.0509 17.6916 11.2101L17.6636 11.1836C19.933 11.3962 22.0921 10.1629 23.0617 8.10013C24.0313 6.03732 23.6033 3.588 21.9916 1.97627C20.3798 0.364535 17.9305 -0.06347 15.8677 0.906158C13.8049 1.87579 12.5716 4.03481 12.7842 6.30421L12.7578 6.27774C12.916 8.15257 12.2397 10.0018 10.9093 11.3322C9.5789 12.6627 7.72964 13.3389 5.85481 13.1807L5.88128 13.2071C3.38658 12.9834 1.06564 14.505 0.275915 16.882C-0.513813 19.2589 0.435108 21.8669 2.56768 23.1805C4.70026 24.4942 7.45632 24.1685 9.22393 22.3939H9.22099Z" fill="#5454D4"/>
<path d="M54.7754 7.72632H59.143V28.9807H54.7754V7.72632Z" fill="#19191B"/>
<path fill-rule="evenodd" clip-rule="evenodd" d="M66.3584 14.5519C63.4761 15.756 61.6041 18.579 61.6166 21.7027C61.6014 23.751 62.4105 25.7193 63.8618 27.1647C65.3131 28.6102 67.2846 29.4114 69.3327 29.388C72.4565 29.388 75.272 27.5046 76.4645 24.6175C77.657 21.7304 76.9911 18.4091 74.7779 16.2048C72.5647 14.0004 69.2408 13.3479 66.3584 14.5519ZM69.2707 18.4459C71.1085 18.412 72.6304 19.8653 72.6813 21.7027C72.7309 22.6136 72.3973 23.5037 71.7613 24.1577C71.1252 24.8116 70.2447 25.1697 69.3327 25.1454C67.4946 25.1455 65.9997 23.6644 65.9827 21.8264C65.9657 19.9883 67.4329 18.4799 69.2707 18.4459Z" fill="#19191B"/>
<path fill-rule="evenodd" clip-rule="evenodd" d="M94.4563 28.2469V14.4233L90.2048 14.4204V15.9057C89.1677 14.6367 87.5904 13.9345 85.9533 14.013C81.96 14.139 78.788 17.4126 78.788 21.4079C78.788 25.4032 81.96 28.6768 85.9533 28.8027C87.5904 28.8813 89.1677 28.1791 90.2048 26.9101V28.241C90.2779 29.1191 89.948 29.9828 89.3082 30.5886C88.6683 31.1944 87.7879 31.4766 86.9151 31.3557C85.5345 31.4966 84.2115 30.7656 83.596 29.5219L79.8695 31.6763C81.3274 34.0517 83.9902 35.4137 86.7695 35.2057C90.6416 35.2057 94.4563 33.138 94.4563 28.2469ZM88.1308 18.0457C89.4447 18.6382 90.2663 19.97 90.2063 21.4101C90.2335 22.3399 89.8662 23.2379 89.1953 23.8823C88.5243 24.5266 87.6122 24.8572 86.6842 24.7924C85.2429 24.7942 83.9454 23.9194 83.4065 22.5826C82.8676 21.2458 83.1957 19.7157 84.2353 18.7174C85.2748 17.7191 86.817 17.4531 88.1308 18.0457Z" fill="#19191B"/>
<path fill-rule="evenodd" clip-rule="evenodd" d="M101.672 14.5519C98.7893 15.756 96.9173 18.579 96.9298 21.7027C96.9147 23.751 97.7238 25.7193 99.175 27.1647C100.626 28.6102 102.598 29.4114 104.646 29.388C107.77 29.388 110.585 27.5046 111.778 24.6175C112.97 21.7304 112.304 18.4091 110.091 16.2048C107.878 14.0004 104.554 13.3479 101.672 14.5519ZM104.584 18.4459C106.422 18.412 107.944 19.8653 107.995 21.7027C108.044 22.6136 107.711 23.5037 107.074 24.1577C106.438 24.8116 105.558 25.1697 104.646 25.1454C102.808 25.1455 101.313 23.6644 101.296 21.8264C101.279 19.9883 102.746 18.4799 104.584 18.4459Z" fill="#19191B"/>
<path fill-rule="evenodd" clip-rule="evenodd" d="M116.017 8.1008C115.037 8.50642 114.399 9.46198 114.399 10.5219C114.413 11.9632 115.578 13.1282 117.02 13.1425C118.079 13.1425 119.035 12.504 119.441 11.5248C119.846 10.5455 119.622 9.41836 118.873 8.66887C118.123 7.91939 116.996 7.69518 116.017 8.1008ZM119.209 14.4234H114.84L114.834 28.9822H119.209V14.4234Z" fill="#19191B"/>
<path fill-rule="evenodd" clip-rule="evenodd" d="M136.187 26.9924C137.493 25.5498 138.17 23.646 138.068 21.7027C138.171 19.759 137.494 17.8546 136.188 16.4117C134.881 14.9687 133.054 14.1064 131.109 14.0159C129.47 13.9266 127.878 14.5782 126.772 15.7909V14.4233H122.405V34.8042H126.772V27.6115C127.878 28.8251 129.47 29.4774 131.109 29.388C133.053 29.2971 134.881 28.4349 136.187 26.9924ZM130.179 18.3252C132.081 18.2934 133.653 19.801 133.7 21.7027C133.766 22.6478 133.426 23.576 132.764 24.2543C132.103 24.9325 131.184 25.2963 130.237 25.2542C128.335 25.2544 126.788 23.7208 126.772 21.8186C126.756 19.9164 128.277 18.3571 130.179 18.3252Z" fill="#19191B"/>
<path d="M151.546 24.6131C151.546 27.9616 148.636 29.3881 145.492 29.3881C142.892 29.6235 140.412 28.2509 139.231 25.9234L143.015 23.769C143.331 24.8525 144.36 25.5683 145.486 25.4866C146.533 25.4866 147.058 25.166 147.058 24.5851C147.058 22.9822 139.895 23.8278 139.895 18.791C139.895 15.616 142.574 14.016 145.602 14.016C147.92 13.9427 150.095 15.1359 151.278 17.1307L147.552 19.1395C147.218 18.36 146.45 17.8556 145.602 17.8587C144.845 17.8587 144.378 18.1528 144.378 18.6734C144.384 20.3337 151.546 19.2263 151.546 24.6131Z" fill="#19191B"/>
<path d="M167.5 14.4233V28.9822H163.133V27.613C162.111 28.8385 160.563 29.4993 158.971 29.3895C156.03 29.3895 153.53 27.2939 153.53 23.3601V14.4233H157.897V22.7204C157.824 23.4222 158.062 24.121 158.55 24.6309C159.038 25.1409 159.725 25.4103 160.43 25.3675C162.031 25.3675 163.137 24.4366 163.137 22.3689V14.4278L167.5 14.4233Z" fill="#19191B"/>
<path d="M192.545 20.0424V28.9807H188.177V20.4204C188.177 18.9645 187.478 18.0336 186.081 18.0336C184.625 18.0336 183.809 19.0527 183.809 20.7704V28.9807H179.443V20.4204C179.443 18.9645 178.745 18.0336 177.346 18.0336C175.89 18.0336 175.075 19.0527 175.075 20.7704V28.9807H170.708V14.4219H175.075V15.7601C175.995 14.5538 177.464 13.8965 178.977 14.0145C180.497 13.9401 181.945 14.6693 182.79 15.9351C183.774 14.6118 185.368 13.8865 187.012 14.0145C190.355 14.016 192.545 16.4027 192.545 20.0424Z" fill="#19191B"/>
<path d="M196.239 14.3337C198.029 14.3337 199.48 12.8825 199.48 11.0925C199.48 9.30244 198.029 7.85132 196.239 7.85132C194.449 7.85132 192.997 9.30244 192.997 11.0925C192.997 12.8825 194.449 14.3337 196.239 14.3337Z" fill="#19191B"/>
</svg>
